<svg xmlns="http://www.w3.org/2000/svg" xmlns:xlink="http://www.w3.org/1999/xlink" width="45" height="27" viewBox="0 0 45 27">
    <defs>
        <path id="e0jbflknva" d="M0.035 0.019L17.858 0.019 17.858 2.379 0.035 2.379z"/>
        <path id="v7gck202yc" d="M0 15.371L19 15.371 19 0 0 0z"/>
    </defs>
    <g fill="none" fill-rule="evenodd">
        <rect width="44" height="26" x=".5" y=".5" fill-rule="nonzero" stroke="#DEE0E3" rx="2"/>
        <g transform="translate(13.042 5.811)">
            <g transform="translate(.949 12.991)">
                <mask id="dw53v1un8b" fill="#fff">
                    <use xlink:href="#e0jbflknva"/>
                </mask>
                <path fill="#020303" d="M17.674 2.177v.069h.057c.013 0 .024-.003.032-.008.008-.006.011-.015.011-.027 0-.011-.003-.02-.011-.026-.008-.005-.019-.008-.032-.008h-.057zm.036-.034c.019 0 .033.004.043.012.01.009.015.02.015.035 0 .013-.004.023-.012.031s-.02.013-.034.015l.047.056h-.037l-.044-.056h-.014v.056h-.03v-.15h.066zm-.01.2c.018 0 .033-.003.048-.01.014-.006.027-.015.038-.026.01-.012.019-.025.025-.04.006-.015.01-.032.01-.049s-.004-.034-.01-.049-.014-.028-.025-.04c-.011-.011-.024-.02-.038-.027-.015-.006-.03-.01-.047-.01s-.033.004-.048.01c-.015.007-.027.016-.038.027-.011.012-.02.025-.026.04-.006.015-.01.032-.01.049s.004.034.01.049.015.028.026.04c.01.011.023.02.038.027.015.006.03.01.048.01zm0-.286c.022 0 .043.004.062.013.02.008.036.02.05.034.015.015.026.032.034.051.008.02.012.041.012.063s-.004.043-.012.062c-.008.02-.02.037-.034.052-.014.014-.03.026-.05.034-.019.01-.04.013-.061.013-.023 0-.043-.004-.063-.013-.02-.008-.036-.02-.05-.034-.014-.015-.025-.032-.034-.052-.008-.019-.012-.04-.012-.062s.004-.043.012-.063c.009-.02.02-.036.034-.051.014-.015.03-.026.05-.034.02-.009.04-.013.063-.013zM3.158 1.481c0-.285.179-.519.473-.519.28 0 .47.224.47.52 0 .294-.19.518-.47.518-.294 0-.473-.234-.473-.519zm1.262 0v-.81h-.34v.196C3.973.721 3.81.63 3.588.63c-.437 0-.78.356-.78.851s.343.852.78.852c.222 0 .385-.092.493-.238v.197h.339v-.81zm11.454 0c0-.285.18-.519.473-.519.28 0 .47.224.47.52 0 .294-.19.518-.47.518-.293 0-.473-.234-.473-.519zm1.262 0V.02h-.339v.848c-.107-.146-.27-.237-.492-.237-.437 0-.78.356-.78.851s.343.852.78.852c.222 0 .385-.092.492-.238v.197h.34v-.81zM8.626.945c.219 0 .359.143.395.394h-.809c.036-.234.173-.394.414-.394zM8.633.63c-.457 0-.777.346-.777.851 0 .516.333.852.8.852.234 0 .45-.062.639-.228l-.166-.26c-.131.108-.297.169-.454.169-.219 0-.417-.105-.466-.397h1.158c.003-.044.006-.088.006-.136C9.37.976 9.07.63 8.633.63zm4.093.851c0-.285.18-.519.473-.519.28 0 .47.224.47.52 0 .294-.19.518-.47.518-.294 0-.473-.234-.473-.519zm1.262 0v-.81h-.34v.196c-.107-.146-.27-.237-.492-.237-.437 0-.779.356-.779.851s.342.852.78.852c.221 0 .384-.092.492-.238v.197h.34v-.81zm-3.177 0c0 .492.33.852.832.852.235 0 .392-.055.56-.194l-.162-.285c-.127.095-.261.146-.408.146-.27-.003-.47-.207-.47-.519 0-.312.2-.515.47-.519.147 0 .28.051.408.146l.163-.285c-.17-.139-.326-.193-.561-.193-.502 0-.832.36-.832.851zm4.37-.851c-.195 0-.322.095-.41.237V.67h-.336v1.622h.339v-.91c0-.267.111-.416.333-.416.068 0 .14.01.212.04l.104-.332c-.075-.03-.173-.044-.241-.044zM6.096.8C5.932.687 5.707.63 5.46.63c-.394 0-.649.197-.649.519 0 .264.19.427.538.478l.16.024c.186.027.274.078.274.17 0 .125-.124.196-.355.196-.235 0-.405-.078-.52-.17l-.159.275c.186.143.421.21.675.21.45 0 .712-.22.712-.528 0-.285-.206-.435-.545-.485l-.16-.025c-.147-.02-.264-.05-.264-.159 0-.118.11-.19.296-.19.2 0 .392.078.487.14L6.095.8zM10.47.63c-.196 0-.323.095-.411.237V.67h-.336v1.622h.34v-.91c0-.267.11-.416.332-.416.068 0 .14.01.212.04l.104-.332c-.075-.03-.173-.044-.24-.044zM7.576.67h-.555V.18H6.68V.67h-.316v.323h.316v.74c0 .376.14.6.541.6.147 0 .317-.048.424-.126l-.097-.302c-.102.061-.212.092-.3.092-.17 0-.226-.109-.226-.272V.993h.555V.67zM2.507 2.292V1.274c0-.383-.234-.64-.612-.644-.2-.003-.405.06-.549.288C1.24.738 1.07.63.831.63.665.63.501.68.374.87v-.2H.035v1.622h.343v-.899c0-.282.15-.43.381-.43.225 0 .34.152.34.427v.902h.342v-.899c0-.282.157-.43.382-.43.231 0 .342.152.342.427v.902h.342z" mask="url(#dw53v1un8b)"/>
            </g>
            <mask id="zu93umu9cd" fill="#fff">
                <use xlink:href="#v7gck202yc"/>
            </mask>
            <path fill="#F16522" d="M6.931 10.907L12.068 10.907 12.068 1.306 6.931 1.306z" mask="url(#zu93umu9cd)"/>
            <path fill="#E41B24" d="M7.257 6.106c0-1.947.877-3.682 2.243-4.8C8.5.488 7.24 0 5.87 0 2.63 0 0 2.734 0 6.106c0 3.373 2.629 6.107 5.871 6.107 1.37 0 2.63-.488 3.629-1.306-1.366-1.118-2.243-2.853-2.243-4.8" mask="url(#zu93umu9cd)"/>
            <path fill="#F89E1B" d="M18.816 9.89v-.237h-.06l-.067.163-.069-.163h-.06v.237h.042v-.179l.064.155h.044l.064-.155v.18h.042zm-.377 0v-.196h.077v-.04h-.195v.04h.077v.196h.041zM19 6.106c0 3.373-2.628 6.107-5.87 6.107-1.37 0-2.63-.488-3.629-1.306 1.366-1.118 2.242-2.853 2.242-4.8 0-1.949-.876-3.684-2.242-4.802C10.5.488 11.76 0 13.128 0 16.371 0 19 2.734 19 6.106z" mask="url(#zu93umu9cd)"/>
        </g>
    </g>
</svg>
