<svg xmlns="http://www.w3.org/2000/svg" width="45" height="27" viewBox="0 0 45 27">
    <g fill="none" fill-rule="evenodd">
        <rect width="44" height="26" x=".5" y=".5" fill-rule="nonzero" stroke="#DEE0E3" rx="2"/>
        <g>
            <path fill="#253B80" d="M13.16 1.963h-1.948c-.133 0-.247.1-.267.234l-.788 5.101c-.016.1.06.191.16.191h.93c.134 0 .247-.099.268-.233l.212-1.376c.02-.135.134-.234.267-.234h.617c1.283 0 2.023-.634 2.216-1.89.088-.55.004-.982-.248-1.285-.277-.332-.768-.508-1.42-.508m.225 1.863c-.106.714-.64.714-1.157.714h-.293l.206-1.333c.012-.08.08-.14.16-.14h.135c.351 0 .683 0 .855.205.102.122.133.304.094.554M18.981 3.803h-.933c-.079 0-.148.06-.16.14l-.041.267-.065-.097c-.202-.3-.652-.4-1.102-.4-1.03 0-1.91.798-2.082 1.917-.09.558.038 1.091.347 1.463.285.342.691.485 1.175.485.83 0 1.29-.546 1.29-.546l-.04.265c-.016.101.06.192.16.192h.84c.133 0 .246-.099.267-.233l.504-3.261c.016-.1-.06-.192-.16-.192m-1.3 1.855c-.09.544-.513.91-1.052.91-.27 0-.487-.09-.626-.258-.138-.167-.19-.404-.147-.669.084-.54.514-.917 1.045-.917.265 0 .48.09.622.26.142.17.199.41.158.674M23.948 3.803h-.937c-.09 0-.174.046-.224.122L21.494 5.87 20.946 4c-.034-.116-.14-.197-.26-.197h-.92c-.112 0-.19.112-.154.22l1.032 3.094-.97 1.4c-.077.11 0 .262.132.262h.936c.089 0 .172-.045.222-.119l3.117-4.596c.075-.11-.002-.26-.133-.26" transform="translate(4.821 9.1)"/>
            <path fill="#179BD7" d="M27.05 1.963h-1.947c-.133 0-.246.1-.267.234l-.788 5.101c-.015.1.06.191.16.191h1c.093 0 .172-.069.187-.163l.223-1.446c.02-.135.134-.234.267-.234h.617c1.283 0 2.023-.634 2.216-1.89.088-.55.004-.982-.248-1.285-.277-.332-.767-.508-1.42-.508m.226 1.863c-.107.714-.64.714-1.157.714h-.294l.207-1.333c.012-.08.08-.14.16-.14h.134c.352 0 .684 0 .855.205.103.122.134.304.095.554M32.872 3.803h-.932c-.08 0-.148.06-.16.14l-.041.267-.066-.097c-.202-.3-.651-.4-1.1-.4-1.031 0-1.911.798-2.083 1.917-.089.558.037 1.091.347 1.463.285.342.691.485 1.175.485.83 0 1.29-.546 1.29-.546l-.04.265c-.016.101.06.192.16.192h.84c.133 0 .246-.099.267-.233l.504-3.261c.016-.1-.06-.192-.16-.192m-1.3 1.855c-.09.544-.514.91-1.053.91-.27 0-.487-.09-.626-.258-.138-.167-.19-.404-.147-.669.085-.54.515-.917 1.046-.917.264 0 .48.09.622.26.142.17.199.41.157.674M33.972 2.103l-.8 5.195c-.015.1.061.191.16.191h.804c.134 0 .247-.098.267-.233l.789-5.101c.015-.101-.061-.192-.16-.192h-.9c-.08 0-.148.06-.16.14" transform="translate(4.821 9.1)"/>
            <path fill="#253B80" d="M2.07 8.48l.148-.966-.332-.007H.302L1.403.376c.003-.022.015-.042.03-.056.017-.014.038-.022.06-.022h2.67c.887 0 1.5.188 1.819.56.15.175.245.357.291.558.049.21.05.462.002.77l-.003.022v.196l.15.087c.126.068.226.147.303.236.128.15.21.339.246.564.036.231.024.506-.035.818-.068.358-.179.67-.328.926-.137.235-.312.43-.52.582-.198.143-.434.252-.7.322-.258.069-.552.103-.875.103h-.208c-.148 0-.293.055-.406.153-.114.1-.189.237-.212.386l-.015.087-.264 1.704-.012.062c-.003.02-.008.03-.016.037-.007.006-.017.01-.027.01H2.069z" transform="translate(4.821 9.1)"/>
            <path fill="#179BD7" d="M6.563 2.23l-.027.16C6.184 4.238 4.98 4.876 3.44 4.876h-.783c-.188 0-.347.14-.376.33l-.402 2.599-.113.737c-.02.124.075.236.198.236h1.39c.164 0 .304-.122.33-.288l.014-.072.261-1.696.017-.093c.026-.167.166-.289.33-.289h.208c1.347 0 2.401-.558 2.71-2.175.128-.675.061-1.239-.28-1.635-.102-.12-.23-.219-.38-.3" transform="translate(4.821 9.1)"/>
            <path fill="#222D65" d="M6.195 2.08c-.054-.016-.11-.03-.166-.043-.058-.013-.116-.025-.177-.034-.211-.035-.442-.052-.69-.052H3.067c-.052 0-.1.012-.145.034-.096.047-.168.14-.185.255L2.292 5.12l-.012.084c.029-.19.188-.329.376-.329h.783c1.54 0 2.745-.639 3.097-2.486.01-.054.02-.108.027-.16-.089-.048-.185-.09-.29-.124-.025-.01-.051-.018-.078-.026" transform="translate(4.821 9.1)"/>
            <path fill="#253B80" d="M2.738 2.24c.017-.115.089-.208.185-.255.045-.022.093-.034.145-.034H5.16c.249 0 .48.017.691.052.06.01.12.021.177.034.057.013.112.027.166.043l.079.025c.104.036.2.077.29.125.104-.682-.001-1.147-.363-1.568C5.803.198 5.084 0 4.164 0H1.493c-.188 0-.349.14-.378.33L.003 7.534c-.022.142.086.27.226.27h1.65l.413-2.683.446-2.881z" transform="translate(4.821 9.1)"/>
        </g>
    </g>
</svg>
