<svg xmlns="http://www.w3.org/2000/svg" xmlns:xlink="http://www.w3.org/1999/xlink" width="45" height="27" viewBox="0 0 45 27">
    <defs>
        <path id="t3nikbhhma" d="M0 0.125L24.766 0.125 24.766 16.222 0 16.222z"/>
        <path id="sjbksbhwuc" d="M0 16.303L24.766 16.303 24.766 0.205 0 0.205z"/>
    </defs>
    <g fill="none" fill-rule="evenodd">
        <rect width="44" height="26" x=".5" y=".5" fill-rule="nonzero" stroke="#DEE0E3" rx="2"/>
        <g transform="translate(9.964 5.143)">
            <g transform="translate(0 .08)">
                <mask id="mfzr9hoy1b" fill="#fff">
                    <use xlink:href="#t3nikbhhma"/>
                </mask>
                <path fill="#0078A9" d="M24.766 15.364c0 .474-.37.858-.826.858H.825c-.456 0-.825-.384-.825-.858V.984c0-.475.37-.86.825-.86H23.94c.456 0 .826.385.826.86v14.38z" mask="url(#mfzr9hoy1b)"/>
            </g>
            <path fill="#FFF" d="M7.684 7.88v-.258l-.119.257H6.54l-.129-.276v.276H4.495l-.227-.557h-.384l-.24.557h-.993V6.197l.728-1.715h1.395l.196.486v-.482h1.706l.375.818.367-.822h5.385s.282-.004.468.132l-.001-.132h1.357v.186s.244-.186.604-.186h2.394l.21.493v-.493h1.535l.278.493v-.493h1.467v3.4h-1.507l-.354-.592v.59h-1.873l-.263-.608h-.367l-.247.607h-1.133s-.423-.005-.74-.241v.241h-2.256v-.793c0-.115-.085-.107-.085-.107h-.083v.9H7.684zM6.558 8.616h2.965l.428.503.437-.503h2.28s.214.005.417.118v-.118h2.03c.258 0 .474.134.474.134v-.134h2.61v.123s.185-.123.435-.123h1.7v.123s.214-.123.44-.123h1.335v3.204s-.175.206-.538.206h-1.76v-.102s-.167.102-.423.102h-4.674v-.828c0-.081-.034-.096-.104-.096h-.064v.924h-1.46v-.918s-.163.09-.433.09h-.526v.828h-1.8l-.41-.52-.438.52H6.558v-3.41z"/>
            <path fill="#0078A9" d="M15.902 9.127L17.763 9.127 17.763 9.646 16.472 9.646 16.472 10.098 17.727 10.098 17.727 10.556 16.472 10.556 16.472 11.032 17.763 11.032 17.763 11.538 15.902 11.538zM21.358 10.066c.699.038.757.401.757.789 0 .451-.357.694-.73.694H20.19v-.517h.932c.158 0 .393 0 .393-.232 0-.11-.041-.18-.21-.198-.074-.011-.35-.027-.393-.028-.631-.017-.779-.344-.779-.742 0-.452.306-.7.679-.7h1.195v.517h-.875c-.199.002-.414-.024-.414.21 0 .148.106.177.24.191.048 0 .358.017.4.016M19.215 10.066c.7.038.758.401.758.789 0 .451-.357.694-.73.694h-1.195v-.517h.931c.158 0 .394 0 .394-.232 0-.11-.042-.18-.21-.198-.075-.011-.352-.027-.393-.028-.632-.017-.779-.344-.779-.742 0-.452.305-.7.678-.7h1.195v.517h-.874c-.2.002-.414-.024-.414.21 0 .148.106.177.24.191.047 0 .357.017.399.016M12.275 10.228h-.709V9.65h.711c.239 0 .314.158.314.277 0 .161-.083.301-.316.301zm-1.283 1.084l-.818-1.007.818-.941v1.948zm-2.176-.28H7.504v-.476H8.76v-.458H7.504v-.452l1.384.003.554.656-.626.727zm3.65-1.9H10.47l-.652.748-.63-.753H6.942v2.41h2.17l.684-.796.667.802h1.092v-.818h.766c.295 0 .833-.01.833-.856 0-.602-.409-.737-.688-.737zM14.725 10.196h-.71V9.65h.712c.238 0 .313.158.313.277 0 .161-.082.269-.315.269m.49.25c.312-.162.394-.377.394-.668 0-.516-.403-.645-.683-.645h-1.48v2.41h.57v-.85h.745c.197 0 .274.204.28.409l.014.441h.554l-.02-.495c0-.388-.103-.57-.373-.603"/>
            <mask id="xu8k9g3jqd" fill="#fff">
                <use xlink:href="#sjbksbhwuc"/>
            </mask>
            <path fill="#0078A9" d="M13.675 7.379L14.244 7.379 14.244 4.965 13.675 4.965zM9.016 4.968L10.876 4.968 10.876 5.487 9.585 5.487 9.585 5.939 10.839 5.939 10.839 6.397 9.585 6.397 9.585 6.873 10.876 6.873 10.876 7.379 9.016 7.379zM12.491 6.031h-.708v-.546h.711c.238 0 .313.159.313.277 0 .162-.083.27-.316.27m.492.249c.31-.161.393-.377.393-.668 0-.516-.403-.645-.683-.645h-1.48v2.41h.57v-.85h.745c.196 0 .274.205.28.41l.015.44h.553l-.02-.495c0-.387-.104-.57-.373-.602M3.693 6.32l.34-.842.353.842h-.693zm4.01-1.352l-.699 1.617-.696-1.617h-.892V7.29l-.994-2.322H3.67l-1.014 2.41h.6l.223-.537h1.136l.225.538h1.146v-1.79l.76 1.79h.518l.779-1.76v1.76h.569V4.968h-.908zM16.62 6.322l.34-.843.357.843h-.696zm3.497-1.355v1.669l-.96-1.67h-.841v2.265l-.97-2.263h-.753l-.784 1.867s-.331 0-.365-.008c-.137-.03-.351-.13-.354-.555v-.175c0-.565.295-.606.673-.606h.352v-.524h-.743c-.26 0-.822.205-.841 1.195-.013.668.267 1.218.898 1.218h.75l.222-.538h1.136l.225.538h1.123V5.615L19.91 7.38h.776V4.967h-.57z" mask="url(#xu8k9g3jqd)"/>
        </g>
    </g>
</svg>
