<svg xmlns="http://www.w3.org/2000/svg" xmlns:xlink="http://www.w3.org/1999/xlink" width="45" height="27" viewBox="0 0 45 27">
    <defs>
        <linearGradient id="ipbzem499b" x1="-169.506%" x2="88.45%" y1="51.82%" y2="49.844%">
            <stop offset="0%" stop-color="#262860"/>
            <stop offset="100%" stop-color="#3D439A"/>
        </linearGradient>
        <linearGradient id="7kgh3letse" x1="-69.774%" x2="134.572%" y1="51.115%" y2="49.204%">
            <stop offset="0%" stop-color="#262860"/>
            <stop offset="100%" stop-color="#3D439A"/>
        </linearGradient>
        <linearGradient id="q2afn64o2h" x1="14.749%" x2="262.25%" y1="50.112%" y2="48.66%">
            <stop offset="0%" stop-color="#262860"/>
            <stop offset="100%" stop-color="#3D439A"/>
        </linearGradient>
        <linearGradient id="8mxhizv6tk" x1="-1.123%" x2="130.407%" y1="50.761%" y2="48.784%">
            <stop offset="0%" stop-color="#262860"/>
            <stop offset="100%" stop-color="#3D439A"/>
        </linearGradient>
        <path id="uy5tgjddba" d="M3.931.042c-.482 0-.763.195-.95.658L.391 7.126l-.365.914c.689 0 1.358.001 2.028-.005.035 0 .087-.059.102-.101.115-.314.227-.63.329-.948.034-.106.079-.145.191-.144.743.006 1.486.009 2.229-.001.148-.002.191.051.215.19.057.334.13.666.198 1.004H7.17v-.057c-.06-.27-.124-.539-.179-.81-.426-2.116-.85-4.233-1.274-6.35l-.16-.776H3.931m.204 2.222l.024.005.587 2.926H3.113l1.022-2.931"/>
        <path id="quoexaiayd" d="M3.755.042c-.038.01-.076.023-.115.028-.699.088-1.355.298-1.908.77-.636.543-.943 1.242-.854 2.103.06.575.373 1.008.806 1.332.338.253.717.446 1.074.672.229.145.47.278.67.458.306.275.274.714-.062.948-.154.107-.34.191-.522.226-.7.137-1.376.012-2.03-.263C.676 6.26.541 6.194.4 6.13L.04 7.876c.025.016.04.028.056.035.054.023.11.047.165.067.647.22 1.307.332 1.977.332h.004c.197 0 .394-.01.593-.029.627-.06 1.23-.225 1.762-.592.847-.584 1.22-1.41 1.094-2.458-.07-.593-.41-1.031-.873-1.35-.394-.27-.82-.491-1.225-.745-.178-.111-.356-.232-.507-.38-.218-.213-.215-.506.014-.71.133-.119.304-.213.473-.262.417-.12.843-.084 1.26.011.303.07.6.179.909.273L6.09.382c-.235-.07-.451-.143-.672-.196C5.176.128 4.93.089 4.685.042h-.93z"/>
        <path id="m6z9pnsaag" d="M7.188.165c-.65 1.721-1.305 3.441-1.959 5.162-.012.032-.031.062-.059.116l-.042-.217C4.864 3.77 4.603 2.314 4.335.858 4.241.344 3.88.042 3.381.042H.222c-.219 0-.219 0-.222.24l.077.02c.59.146 1.167.325 1.724.58.347.159.532.418.625.797.504 2.07 1.023 4.134 1.533 6.201.03.12.07.166.198.164.602-.009 1.204-.007 1.805-.002.11.001.165-.028.21-.141C7.123 5.534 8.077 3.17 9.03.805L9.332.05C9.276.046 9.237.042 9.197.042H8.68C8.24.044 7.803.044 7.365.04H7.36c-.095 0-.138.032-.173.125"/>
        <path id="1fq1qocc8j" d="M1.689.004L.045 7.993h.164c.547 0 1.094-.007 1.64.004.153.003.205-.045.236-.198.447-2.2.9-4.397 1.353-6.595l.246-1.2H1.689z"/>
    </defs>
    <g fill="none" fill-rule="evenodd">
        <rect width="44" height="26" x=".5" y=".5" fill-rule="nonzero" stroke="#DEE0E3" rx="2"/>
        <g>
            <g transform="translate(10.046 9.196) translate(17.433 .147)">
                <mask id="qvditiw08c" fill="#fff">
                    <use xlink:href="#uy5tgjddba"/>
                </mask>
                <path fill="url(#ipbzem499b)" d="M3.931.042c-.482 0-.763.195-.95.658L.391 7.126l-.365.914c.689 0 1.358.001 2.028-.005.035 0 .087-.059.102-.101.115-.314.227-.63.329-.948.034-.106.079-.145.191-.144.743.006 1.486.009 2.229-.001.148-.002.191.051.215.19.057.334.13.666.198 1.004H7.17v-.057c-.06-.27-.124-.539-.179-.81-.426-2.116-.85-4.233-1.274-6.35l-.16-.776H3.931m.204 2.222l.024.005.587 2.926H3.113l1.022-2.931" mask="url(#qvditiw08c)"/>
            </g>
            <g transform="translate(10.046 9.196) translate(11.85 .006)">
                <mask id="p8i00vhdmf" fill="#fff">
                    <use xlink:href="#quoexaiayd"/>
                </mask>
                <path fill="url(#7kgh3letse)" d="M3.755.042c-.038.01-.076.023-.115.028-.699.088-1.355.298-1.908.77-.636.543-.943 1.242-.854 2.103.06.575.373 1.008.806 1.332.338.253.717.446 1.074.672.229.145.47.278.67.458.306.275.274.714-.062.948-.154.107-.34.191-.522.226-.7.137-1.376.012-2.03-.263C.676 6.26.541 6.194.4 6.13L.04 7.876c.025.016.04.028.056.035.054.023.11.047.165.067.647.22 1.307.332 1.977.332h.004c.197 0 .394-.01.593-.029.627-.06 1.23-.225 1.762-.592.847-.584 1.22-1.41 1.094-2.458-.07-.593-.41-1.031-.873-1.35-.394-.27-.82-.491-1.225-.745-.178-.111-.356-.232-.507-.38-.218-.213-.215-.506.014-.71.133-.119.304-.213.473-.262.417-.12.843-.084 1.26.011.303.07.6.179.909.273L6.09.382c-.235-.07-.451-.143-.672-.196C5.176.128 4.93.089 4.685.042h-.93z" mask="url(#p8i00vhdmf)"/>
            </g>
            <g transform="translate(10.046 9.196) translate(0 .147)">
                <mask id="4a1vff0poi" fill="#fff">
                    <use xlink:href="#m6z9pnsaag"/>
                </mask>
                <path fill="url(#q2afn64o2h)" d="M7.188.165c-.65 1.721-1.305 3.441-1.959 5.162-.012.032-.031.062-.059.116l-.042-.217C4.864 3.77 4.603 2.314 4.335.858 4.241.344 3.88.042 3.381.042H.222c-.219 0-.219 0-.222.24l.077.02c.59.146 1.167.325 1.724.58.347.159.532.418.625.797.504 2.07 1.023 4.134 1.533 6.201.03.12.07.166.198.164.602-.009 1.204-.007 1.805-.002.11.001.165-.028.21-.141C7.123 5.534 8.077 3.17 9.03.805L9.332.05C9.276.046 9.237.042 9.197.042H8.68C8.24.044 7.803.044 7.365.04H7.36c-.095 0-.138.032-.173.125" mask="url(#4a1vff0poi)"/>
            </g>
            <g transform="translate(10.046 9.196) translate(8.49 .195)">
                <mask id="b3rynrgc8l" fill="#fff">
                    <use xlink:href="#1fq1qocc8j"/>
                </mask>
                <path fill="url(#8mxhizv6tk)" d="M1.689.004L.045 7.993h.164c.547 0 1.094-.007 1.64.004.153.003.205-.045.236-.198.447-2.2.9-4.397 1.353-6.595l.246-1.2H1.689z" mask="url(#b3rynrgc8l)"/>
            </g>
        </g>
    </g>
</svg>
